<svg width="120" height="120" viewBox="0 0 48 48" fill="none" xmlns="http://www.w3.org/2000/svg">
<path d="M4 32.083C4 30.881 4.266 29.688 4.971 28.715C7.045 25.85 12.671 20 24 20C35.329 20 40.955 25.851 43.029 28.715C43.734 29.688 44 30.881 44 32.083C44 34.1827 43.1659 36.1964 41.6812 37.6812C40.1964 39.1659 38.1827 40 36.083 40H11.917C9.81728 40 7.80356 39.1659 6.31884 37.6812C4.83411 36.1964 4 34.1827 4 32.083Z" stroke="white" stroke-width="4" stroke-linecap="round" stroke-linejoin="round"/>
<path d="M12 9V13M14 22V26M36 9V13M34 22V26M24 7V13M24 20V28M24 20C31.808 20 36.906 22.78 40 25.443M24 20C16.192 20 11.094 22.779 8 25.443" stroke="white" stroke-width="4" stroke-linecap="round"/>
</svg>
