<svg width="22" height="22" viewBox="0 0 22 22" fill="none" xmlns="http://www.w3.org/2000/svg">
<path d="M5.17501 9.33309C3.96701 9.74109 3.22001 10.3031 3.22001 10.9261C3.22001 11.7741 4.60901 12.5131 6.66001 12.8961C5.89801 13.2821 5.44301 13.7711 5.44301 14.3041C5.44301 15.5471 7.93001 16.5551 10.998 16.5551C11.743 16.5566 12.4867 16.494 13.221 16.3681M6.66101 12.8971C7.72575 13.0872 8.80545 13.1809 9.88701 13.1771C11.595 13.1771 13.152 12.9611 14.332 12.6041M15.442 9.12409C14.031 9.54109 12.063 9.80009 9.88701 9.80009C5.59201 9.80009 2.10901 8.79209 2.10901 7.54809C2.10901 6.58809 4.18601 5.76809 7.10901 5.44409" stroke="white" stroke-width="1.5" stroke-linecap="round" stroke-linejoin="round"/>
<path d="M21 18.07C21 19.688 16.523 21 11 21C5.477 21 1 19.688 1 18.07C1 16.92 2.707 15.924 6 15.444M17.76 7.788C21.974 6.694 22.576 13.256 16.555 15.444M16.558 1C15.818 1.123 14.425 1.815 14.78 3.593C15.136 5.37 14.632 6.309 14.336 6.556M12.113 1C11.372 1.148 9.979 1.978 10.335 4.111C10.691 6.244 10.187 6.815 9.891 7.111" stroke="white" stroke-width="1.5" stroke-linecap="round" stroke-linejoin="round"/>
</svg>
