<svg width="24" height="24" viewBox="0 0 24 24" fill="none" xmlns="http://www.w3.org/2000/svg">
<path d="M7.01 10.207H6.066L5.551 12.855H6.389C6.945 12.855 7.359 12.7503 7.631 12.541C7.903 12.331 8.08633 11.9813 8.181 11.492C8.27233 11.022 8.231 10.6903 8.057 10.497C7.88233 10.3037 7.53333 10.207 7.01 10.207ZM12 5.68799C5.373 5.68799 0 8.51399 0 12C0 15.486 5.373 18.313 12 18.313C18.627 18.313 24 15.486 24 12C24 8.51399 18.627 5.68799 12 5.68799ZM8.74 13.139C8.479 13.389 8.165 13.577 7.823 13.69C7.48633 13.7987 7.058 13.8533 6.538 13.854H5.357L5.03 15.535H3.652L4.882 9.20899H7.532C8.32867 9.20899 8.91 9.41832 9.276 9.83699C9.642 10.255 9.752 10.839 9.606 11.589C9.55068 11.8859 9.44769 12.172 9.301 12.436C9.15767 12.6913 8.97067 12.9257 8.74 13.139ZM12.764 13.854L13.307 11.055C13.3697 10.7363 13.347 10.5193 13.239 10.404C13.1323 10.288 12.9033 10.23 12.552 10.23H11.46L10.756 13.855H9.388L10.618 7.52799H11.985L11.658 9.20999H12.876C13.6427 9.20999 14.1713 9.34365 14.462 9.61099C14.898 10.012 14.84 10.311 14.725 10.91L14.153 13.854H12.764ZM20.361 11.589C20.3057 11.8859 20.2027 12.172 20.056 12.436C19.9133 12.6913 19.7263 12.9257 19.495 13.139C19.2339 13.3882 18.9207 13.5764 18.578 13.69C18.242 13.7987 17.8133 13.8533 17.292 13.854H16.112L15.785 15.536H14.407L15.637 9.20999H18.286C19.0827 9.20999 19.664 9.41932 20.03 9.83799C20.3967 10.2553 20.507 10.839 20.361 11.589ZM17.766 10.207H16.823L16.307 12.855H17.145C17.7017 12.855 18.1157 12.7503 18.387 12.541C18.6583 12.331 18.842 11.9813 18.938 11.492C19.0293 11.022 18.9877 10.6903 18.813 10.497C18.551 10.207 18.289 10.207 17.766 10.207Z" fill="white"/>
</svg>
