<svg width="15" height="15" viewBox="0 0 15 15" fill="none" xmlns="http://www.w3.org/2000/svg">
<g clip-path="url(#clip0_1050_2)">
<path d="M3 12H1.5C1.10218 12 0.720644 11.842 0.43934 11.5607C0.158035 11.2794 0 10.8978 0 10.5L0 5.5C0 5.10218 0.158035 4.72064 0.43934 4.43934C0.720644 4.15804 1.10218 4 1.5 4H8V3H7V2H6V3H4V1.5C4 1.10218 4.15804 0.720644 4.43934 0.43934C4.72064 0.158035 5.10218 0 5.5 0L9.5 0C9.89782 0 10.2794 0.158035 10.5607 0.43934C10.842 0.720644 11 1.10218 11 1.5V6.5C11 6.63261 10.9473 6.75979 10.8536 6.85355C10.7598 6.94732 10.6326 7 10.5 7H4.5C4.10218 7 3.72064 7.15804 3.43934 7.43934C3.15804 7.72064 3 8.10218 3 8.5V12Z" fill="white"/>
<path d="M12 3V6.5C12 6.89782 11.842 7.27936 11.5607 7.56066C11.2794 7.84196 10.8978 8 10.5 8H4.5C4.36739 8 4.24021 8.05268 4.14645 8.14645C4.05268 8.24021 4 8.36739 4 8.5V13.5C4 13.8978 4.15804 14.2794 4.43934 14.5607C4.72064 14.842 5.10218 15 5.5 15H9.5C9.89782 15 10.2794 14.842 10.5607 14.5607C10.842 14.2794 11 13.8978 11 13.5V12H9V13H8V12H7V11H13.5C13.8978 11 14.2794 10.842 14.5607 10.5607C14.842 10.2794 15 9.89782 15 9.5V4.5C15 4.10218 14.842 3.72064 14.5607 3.43934C14.2794 3.15804 13.8978 3 13.5 3H12Z" fill="white"/>
</g>
<defs>
<clipPath id="clip0_1050_2">
<rect width="15" height="15" fill="white"/>
</clipPath>
</defs>
</svg>
