<svg width="22" height="20" viewBox="0 0 22 20" fill="none" xmlns="http://www.w3.org/2000/svg">
<path d="M11 8.11003C12.03 8.11003 12.87 8.95003 12.87 10C12.87 11 12.03 11.85 11 11.85C9.97 11.85 9.13 11 9.13 10C9.13 8.95003 9.97 8.11003 11 8.11003ZM6.37 18C7 18.38 8.38 17.8 9.97 16.3C9.45 15.71 8.94 15.07 8.46 14.4C7.65422 14.3223 6.85311 14.2022 6.06 14.04C5.55 16.18 5.74 17.65 6.37 18ZM7.08 12.26L6.79 11.75C6.68 12.04 6.57 12.33 6.5 12.61C6.77 12.67 7.07 12.72 7.38 12.77L7.08 12.26ZM13.62 11.5L14.43 10L13.62 8.50003C13.32 7.97003 13 7.50003 12.71 7.03003C12.17 7.00003 11.6 7.00003 11 7.00003C10.4 7.00003 9.83 7.00003 9.29 7.03003C9 7.50003 8.68 7.97003 8.38 8.50003L7.57 10L8.38 11.5C8.68 12.03 9 12.5 9.29 12.97C9.83 13 10.4 13 11 13C11.6 13 12.17 13 12.71 12.97C13 12.5 13.32 12.03 13.62 11.5ZM11 4.78003C10.81 5.00003 10.61 5.23003 10.41 5.50003H11.59C11.39 5.23003 11.19 5.00003 11 4.78003ZM11 15.22C11.19 15 11.39 14.77 11.59 14.5H10.41C10.61 14.77 10.81 15 11 15.22ZM15.62 2.00003C15 1.62003 13.62 2.20003 12.03 3.70003C12.55 4.29003 13.06 4.93003 13.54 5.60003C14.36 5.68003 15.17 5.80003 15.94 5.96003C16.45 3.82003 16.26 2.35003 15.62 2.00003ZM14.92 7.74003L15.21 8.25003C15.32 7.96003 15.43 7.67003 15.5 7.39003C15.23 7.33003 14.93 7.28003 14.62 7.23003L14.92 7.74003ZM16.37 0.690029C17.84 1.53003 18 3.74003 17.38 6.32003C19.92 7.07003 21.75 8.31003 21.75 10C21.75 11.69 19.92 12.93 17.38 13.68C18 16.26 17.84 18.47 16.37 19.31C14.91 20.15 12.92 19.19 11 17.36C9.08 19.19 7.09 20.15 5.62 19.31C4.16 18.47 4 16.26 4.62 13.68C2.08 12.93 0.25 11.69 0.25 10C0.25 8.31003 2.08 7.07003 4.62 6.32003C4 3.74003 4.16 1.53003 5.62 0.690029C7.09 -0.149971 9.08 0.810028 11 2.64003C12.92 0.810028 14.91 -0.149971 16.37 0.690029ZM16.08 10C16.42 10.75 16.72 11.5 16.97 12.26C19.07 11.63 20.25 10.73 20.25 10C20.25 9.27003 19.07 8.37003 16.97 7.74003C16.72 8.50003 16.42 9.25003 16.08 10ZM5.92 10C5.58 9.25003 5.28 8.50003 5.03 7.74003C2.93 8.37003 1.75 9.27003 1.75 10C1.75 10.73 2.93 11.63 5.03 12.26C5.28 11.5 5.58 10.75 5.92 10ZM14.92 12.26L14.62 12.77C14.93 12.72 15.23 12.67 15.5 12.61C15.43 12.33 15.32 12.04 15.21 11.75L14.92 12.26ZM12.03 16.3C13.62 17.8 15 18.38 15.62 18C16.26 17.65 16.45 16.18 15.94 14.04C15.17 14.2 14.36 14.32 13.54 14.4C13.06 15.07 12.55 15.71 12.03 16.3ZM7.08 7.74003L7.38 7.23003C7.07 7.28003 6.77 7.33003 6.5 7.39003C6.57 7.67003 6.68 7.96003 6.79 8.25003L7.08 7.74003ZM9.97 3.70003C8.38 2.20003 7 1.62003 6.37 2.00003C5.74 2.35003 5.55 3.82003 6.06 5.96003C6.85311 5.79788 7.65422 5.67771 8.46 5.60003C8.94 4.93003 9.45 4.29003 9.97 3.70003Z" fill="white"/>
</svg>
